<svg xmlns="http://www.w3.org/2000/svg" viewBox="0 0 1200 720" role="img" aria-labelledby="title desc">
  <title id="title">Imagem de exemplo para consertos em calçados</title>
  <desc id="desc">Ilustração simples de um sapato sobre uma bancada de trabalho.</desc>
  <defs>
    <linearGradient id="bg" x1="0" x2="1" y1="0" y2="1">
      <stop stop-color="#fff9ed"/>
      <stop offset="1" stop-color="#ead8bb"/>
    </linearGradient>
  </defs>
  <rect width="1200" height="720" fill="url(#bg)"/>
  <rect x="120" y="460" width="960" height="76" rx="16" fill="#8b5a2b" opacity=".18"/>
  <path d="M246 412c92 19 210 15 302-20 42-16 74-20 114 8l86 60c64 45 143 51 214 27 25-8 48 11 45 37-4 31-30 55-61 57H288c-75 0-135-48-151-120-6-29 17-55 46-51 21 3 42 2 63 2Z" fill="#5a3320"/>
  <path d="M282 379c81 16 174 7 250-26 63-28 109-24 155 9l83 59c46 33 102 44 157 33l28-6 17 44c-76 27-159 14-226-32l-84-58c-37-26-69-29-111-10-89 40-195 51-289 32l20-45Z" fill="#d59b2d"/>
  <path d="M260 424c147 38 301 16 445-67" fill="none" stroke="#fff9ed" stroke-width="16" stroke-linecap="round" opacity=".7"/>
  <circle cx="384" cy="302" r="34" fill="#f0c46b"/>
  <path d="M352 302h64M384 270v64" stroke="#5a3320" stroke-width="10" stroke-linecap="round"/>
  <text x="120" y="142" fill="#2d1b12" font-family="Arial, sans-serif" font-size="54" font-weight="700">Consertos em calçados</text>
  <text x="120" y="202" fill="#705f50" font-family="Arial, sans-serif" font-size="30">Imagem de exemplo para substituir por foto real</text>
</svg>
